<?xml version="1.0" encoding="UTF-8" standalone="no"?>
<svg
   xmlns:dc="http://purl.org/dc/elements/1.1/"
   xmlns:cc="http://creativecommons.org/ns#"
   xmlns:rdf="http://www.w3.org/1999/02/22-rdf-syntax-ns#"
   xmlns:svg="http://www.w3.org/2000/svg"
   xmlns="http://www.w3.org/2000/svg"
   xmlns:sodipodi="http://sodipodi.sourceforge.net/DTD/sodipodi-0.dtd"
   xmlns:inkscape="http://www.inkscape.org/namespaces/inkscape"
   width="210mm"
   height="297mm"
   viewBox="0 0 210 297"
   version="1.1"
   id="svg8"
   inkscape:version="1.0.1 (3bc2e813f5, 2020-09-07)"
   sodipodi:docname="EcoTrackerIcon.svg">
  <defs
     id="defs2" />
  <sodipodi:namedview
     id="base"
     pagecolor="#ffffff"
     bordercolor="#666666"
     borderopacity="1.0"
     inkscape:pageopacity="0.0"
     inkscape:pageshadow="2"
     inkscape:zoom="0.37790923"
     inkscape:cx="1108.5514"
     inkscape:cy="906.16581"
     inkscape:document-units="mm"
     inkscape:current-layer="layer1"
     inkscape:document-rotation="0"
     showgrid="false"
     showguides="true"
     inkscape:guide-bbox="true"
     inkscape:window-width="2560"
     inkscape:window-height="1377"
     inkscape:window-x="2552"
     inkscape:window-y="-8"
     inkscape:window-maximized="1" />
  <metadata
     id="metadata5">
    <rdf:RDF>
      <cc:Work
         rdf:about="">
        <dc:format>image/svg+xml</dc:format>
        <dc:type
           rdf:resource="http://purl.org/dc/dcmitype/StillImage" />
        <dc:title />
      </cc:Work>
    </rdf:RDF>
  </metadata>
  <g
     inkscape:label="Ebene 1"
     inkscape:groupmode="layer"
     id="layer1">
    <path
       style="fill:#46a24a;stroke:none;stroke-width:0.264583px;stroke-linecap:butt;stroke-linejoin:miter;stroke-opacity:1;fill-opacity:1"
       d="M 10.228268,181.74846 181.89856,280.86235 350.062,276.54898 335.14411,24.177142 293.74986,0.27817077 298.25283,14.00248 v 152.27697 l -5.60099,9.45168 -10.85191,4.90087 -271.571662,1.11646"
       id="path846" />
    <rect
       style="opacity:0.999;fill:#4caf50;fill-opacity:1;stroke:none;stroke-width:7;stroke-linejoin:round;stroke-miterlimit:4;stroke-dasharray:none"
       id="rect1037"
       width="350"
       height="350"
       x="-25.000004"
       y="-85.041672"
       ry="14.74552"
       inkscape:export-xdpi="96"
       inkscape:export-ydpi="96" />
    <path
       style="fill:#28b82a;fill-opacity:1;stroke:#000000;stroke-width:5;stroke-linecap:butt;stroke-linejoin:miter;stroke-miterlimit:4;stroke-dasharray:none;stroke-opacity:1"
       d="m 222.09286,151.09423 c 0,0 13.60711,0.96927 19.46577,-1.88989 18.58113,-9.06799 35.74524,-25.51225 42.71133,-44.97916 4.05831,-11.341035 8.25682,-34.943563 -6.4256,-67.468745 -3.34313,-4.176972 -47.84762,29.758202 -63.87797,65.956845 -11.10318,25.07245 8.12647,48.38095 8.12647,48.38095 z"
       id="path847"
       sodipodi:nodetypes="cascsc" />
    <path
       style="fill:#ffffff;stroke:#000000;stroke-width:3;stroke-linecap:butt;stroke-linejoin:miter;stroke-miterlimit:4;stroke-dasharray:none;stroke-opacity:1"
       d="m 222.09286,151.09423 c 0,0 14.89494,-19.72495 21.35567,-30.2381 6.27069,-10.20391 16.81994,-31.749995 16.81994,-31.749995 0,0 -4.48398,21.924565 -8.88244,32.127975 -4.43079,10.27841 -17.38691,28.72619 -17.38691,28.72619 z"
       id="path863"
       sodipodi:nodetypes="cscscc" />
    <path
       id="rect833"
       style="opacity:0.999;fill:none;stroke:#000000;stroke-width:7;stroke-linejoin:round;stroke-miterlimit:4;stroke-dasharray:none"
       d="M 17.225055,-0.06213653 H 282.77494 c 8.16901,0 14.74552,6.57650263 14.74552,14.74552153 V 165.23328 c 0,8.16902 -6.57651,14.74552 -14.74552,14.74552 H 17.225055 c -8.1690194,0 -14.745522,-6.5765 -14.745522,-14.74552 V 14.683385 c 0,-8.1690189 6.5765026,-14.74552153 14.745522,-14.74552153 z" />
    <path
       style="fill:none;stroke:#000000;stroke-width:7;stroke-linecap:butt;stroke-linejoin:miter;stroke-miterlimit:4;stroke-dasharray:none;stroke-opacity:1"
       d="M 102.5,0 V 179.91666"
       id="path835" />
    <path
       style="fill:none;stroke:#000000;stroke-width:7;stroke-linecap:butt;stroke-linejoin:miter;stroke-miterlimit:4;stroke-dasharray:none;stroke-opacity:1"
       d="M 202.5,0 V 179.91666"
       id="path837" />
    <text
       xml:space="preserve"
       style="font-style:normal;font-weight:normal;font-size:141.111px;line-height:1.25;font-family:sans-serif;fill:#000000;fill-opacity:1;stroke:none;stroke-width:0.264583"
       x="16.252975"
       y="140.77345"
       id="text841"><tspan
         sodipodi:role="line"
         id="tspan839"
         x="16.252975"
         y="140.77345"
         style="font-style:normal;font-variant:normal;font-weight:normal;font-stretch:normal;font-size:141.111px;font-family:Roboto;-inkscape-font-specification:Roboto;stroke-width:0.264583">9</tspan></text>
    <text
       xml:space="preserve"
       style="font-style:normal;font-weight:normal;font-size:141.111px;line-height:1.25;font-family:sans-serif;fill:#000000;fill-opacity:1;stroke:none;stroke-width:0.264583"
       x="114.1488"
       y="140.11888"
       id="text845"><tspan
         sodipodi:role="line"
         id="tspan843"
         x="114.1488"
         y="140.11888"
         style="font-style:normal;font-variant:normal;font-weight:normal;font-stretch:normal;font-size:141.111px;font-family:Roboto;-inkscape-font-specification:Roboto;stroke-width:0.264583">7</tspan></text>
    <path
       id="rect874"
       style="opacity:0.999;fill:none;fill-opacity:1;stroke:none;stroke-width:1;stroke-linejoin:round;stroke-miterlimit:4;stroke-dasharray:none"
       d="M -10.254486,-85.041664 H 310.25447 c 8.16902,0 14.74552,6.576502 14.74552,14.74552 V 250.21282 c 0,8.16901 -6.5765,14.74552 -14.74552,14.74552 H -10.254486 c -8.169018,0 -14.74552,-6.57651 -14.74552,-14.74552 V -70.296144 c 0,-8.169018 6.576502,-14.74552 14.74552,-14.74552 z" />
  </g>
  <g
     inkscape:groupmode="layer"
     id="layer2"
     inkscape:label="Ebene 2" />
</svg>
